<svg width="592" height="231" viewBox="0 0 592 231" fill="none" xmlns="http://www.w3.org/2000/svg">
<path fill-rule="evenodd" clip-rule="evenodd" d="M0 24.531L25 34.6786C49 44.8261 99 65.1211 148 65.1211C197 65.1211 247 44.8261 296 31.296C345 18.3298 395 11.5647 444 13.256C493 14.9472 543 24.531 567 29.6048L592 34.6786V95H567C543 95 493 95 444 95C395 95 345 95 296 95C247 95 197 95 148 95C99 95 49 95 25 95H0V24.531Z" fill="#27A2F3" fill-opacity=".9"/>
<path fill-rule="evenodd" clip-rule="evenodd" d="M0 0L25 3.20225C49 6.40449 99 12.809 148 24.0169C197 34.691 247 50.7022 296 63.5112C345 75.7865 395 85.3933 444 86.9944C493 88.5955 543 82.191 567 78.9888L592 75.7865V95H567C543 95 493 95 444 95C395 95 345 95 296 95C247 95 197 95 148 95C99 95 49 95 25 95H0V0Z" fill="#27A2F3" fill-opacity=".9"/>
<rect y="95" width="592" height="136" fill="#27A2F3"/>
</svg>
