<svg width="592" height="311" viewBox="0 0 592 311" fill="none" xmlns="http://www.w3.org/2000/svg">
<path fill-rule="evenodd" clip-rule="evenodd" d="M0 293L49 287C99 281 197 269 296 272C395 275 493 293 543 302L592 311V248H528C478 248 387 248 288 248C189 248 85 248 35 248H0V293Z" fill="#30A6F3"/>
<path d="M567.333 40.1683L592 51.2248V248H0V34.64L24.6667 37.4042C49.3334 40.1683 98.6667 45.6966 148 42.9324C197.333 40.1683 246.667 29.1118 296 18.0552C345.333 6.99871 394.667 -4.05782 444 1.47044C493.333 6.99871 542.667 29.1118 567.333 40.1683Z" fill="#30A6F3"/>
</svg>
